<mxfile host="app.diagrams.net" modified="2024-05-19T00:16:32.089Z" agent="Mozilla/5.0 (Windows NT 10.0; Win64; x64) AppleWebKit/537.36 (KHTML, like Gecko) Chrome/124.0.0.0 Safari/537.36" etag="a6Hkptp9lriZH1Zf2slo" version="24.4.4" type="device">
  <diagram name="Page-1" id="52a04d89-c75d-2922-d76d-85b35f80e030">
    <mxGraphModel dx="1615" dy="803" grid="1" gridSize="10" guides="1" tooltips="1" connect="1" arrows="1" fold="1" page="1" pageScale="1" pageWidth="1100" pageHeight="850" background="none" math="0" shadow="0">
      <root>
        <mxCell id="0" />
        <mxCell id="1" parent="0" />
        <mxCell id="GlyjRPv7AyUIxzF5meV9-2" style="edgeStyle=orthogonalEdgeStyle;rounded=0;orthogonalLoop=1;jettySize=auto;html=1;" parent="1" source="21ea969265ad0168-30" edge="1">
          <mxGeometry relative="1" as="geometry">
            <mxPoint x="977.5" y="200" as="targetPoint" />
          </mxGeometry>
        </mxCell>
        <mxCell id="21ea969265ad0168-30" value="Video DB" style="html=1;rounded=0;shadow=0;comic=0;labelBackgroundColor=none;strokeWidth=2;fontFamily=Verdana;fontSize=12;align=center;shape=mxgraph.ios7ui.horLines;" parent="1" vertex="1">
          <mxGeometry x="910" y="107" width="135" height="50" as="geometry" />
        </mxCell>
        <mxCell id="17472293e6e8944d-4" value="Main DB" style="html=1;rounded=0;shadow=0;comic=0;labelBackgroundColor=none;strokeWidth=2;fontFamily=Verdana;fontSize=12;align=center;shape=mxgraph.ios7ui.horLines;" parent="1" vertex="1">
          <mxGeometry x="910" y="206" width="135" height="50" as="geometry" />
        </mxCell>
        <mxCell id="1fdf3b25b50cf41e-27" style="edgeStyle=none;html=1;labelBackgroundColor=none;startFill=0;startSize=8;endFill=1;endSize=8;fontFamily=Verdana;fontSize=12;" parent="1" source="17472293e6e8944d-30" target="1fdf3b25b50cf41e-1" edge="1">
          <mxGeometry relative="1" as="geometry" />
        </mxCell>
        <mxCell id="17472293e6e8944d-30" value="Input" style="whiteSpace=wrap;html=1;rounded=0;shadow=0;comic=0;labelBackgroundColor=none;strokeWidth=1;fontFamily=Verdana;fontSize=12;align=center;" parent="1" vertex="1">
          <mxGeometry x="60" y="55" width="120" height="50" as="geometry" />
        </mxCell>
        <mxCell id="1fdf3b25b50cf41e-29" style="edgeStyle=none;html=1;labelBackgroundColor=none;startFill=0;startSize=8;endFill=1;endSize=8;fontFamily=Verdana;fontSize=12;" parent="1" source="1fdf3b25b50cf41e-1" target="1fdf3b25b50cf41e-7" edge="1">
          <mxGeometry relative="1" as="geometry" />
        </mxCell>
        <mxCell id="1fdf3b25b50cf41e-38" style="edgeStyle=orthogonalEdgeStyle;html=1;labelBackgroundColor=none;startFill=0;startSize=8;endFill=1;endSize=8;fontFamily=Verdana;fontSize=12;" parent="1" source="1fdf3b25b50cf41e-1" target="21ea969265ad0168-30" edge="1">
          <mxGeometry relative="1" as="geometry">
            <Array as="points">
              <mxPoint x="540" y="132" />
            </Array>
          </mxGeometry>
        </mxCell>
        <mxCell id="1fdf3b25b50cf41e-1" value="1" style="swimlane;html=1;fontStyle=0;childLayout=stackLayout;horizontal=1;startSize=16;fillColor=#e0e0e0;horizontalStack=0;resizeParent=1;resizeLast=0;collapsible=1;marginBottom=0;swimlaneFillColor=#ffffff;align=center;rounded=1;shadow=0;comic=0;labelBackgroundColor=none;strokeWidth=1;fontFamily=Verdana;fontSize=12" parent="1" vertex="1">
          <mxGeometry x="430" y="54" width="140" height="52" as="geometry" />
        </mxCell>
        <mxCell id="1fdf3b25b50cf41e-2" value="Smart Camera Record" style="text;html=1;strokeColor=none;fillColor=none;spacingLeft=4;spacingRight=4;whiteSpace=wrap;overflow=hidden;rotatable=0;points=[[0,0.5],[1,0.5]];portConstraint=eastwest;align=center;" parent="1fdf3b25b50cf41e-1" vertex="1">
          <mxGeometry y="16" width="140" height="26" as="geometry" />
        </mxCell>
        <mxCell id="GlyjRPv7AyUIxzF5meV9-1" style="edgeStyle=orthogonalEdgeStyle;rounded=0;orthogonalLoop=1;jettySize=auto;html=1;" parent="1" source="1fdf3b25b50cf41e-6" target="17472293e6e8944d-4" edge="1">
          <mxGeometry relative="1" as="geometry" />
        </mxCell>
        <mxCell id="1fdf3b25b50cf41e-6" value="AI DB" style="html=1;rounded=0;shadow=0;comic=0;labelBackgroundColor=none;strokeWidth=2;fontFamily=Verdana;fontSize=12;align=center;shape=mxgraph.ios7ui.horLines;" parent="1" vertex="1">
          <mxGeometry x="910" y="370" width="135" height="50" as="geometry" />
        </mxCell>
        <mxCell id="1fdf3b25b50cf41e-35" style="edgeStyle=none;html=1;labelBackgroundColor=none;startFill=0;startSize=8;endFill=1;endSize=8;fontFamily=Verdana;fontSize=12;" parent="1" source="1fdf3b25b50cf41e-7" target="1fdf3b25b50cf41e-34" edge="1">
          <mxGeometry relative="1" as="geometry">
            <mxPoint x="570.0001622472457" y="179.9302333127779" as="targetPoint" />
          </mxGeometry>
        </mxCell>
        <mxCell id="1fdf3b25b50cf41e-7" value="2" style="swimlane;html=1;fontStyle=0;childLayout=stackLayout;horizontal=1;startSize=26;fillColor=#e0e0e0;horizontalStack=0;resizeParent=1;resizeLast=0;collapsible=1;marginBottom=0;swimlaneFillColor=#ffffff;align=center;rounded=1;shadow=0;comic=0;labelBackgroundColor=none;strokeWidth=1;fontFamily=Verdana;fontSize=12" parent="1" vertex="1">
          <mxGeometry x="430" y="165" width="140" height="52" as="geometry" />
        </mxCell>
        <mxCell id="1fdf3b25b50cf41e-8" value="STS Dashboard" style="text;html=1;strokeColor=none;fillColor=none;spacingLeft=4;spacingRight=4;whiteSpace=wrap;overflow=hidden;rotatable=0;points=[[0,0.5],[1,0.5]];portConstraint=eastwest;align=center;" parent="1fdf3b25b50cf41e-7" vertex="1">
          <mxGeometry y="26" width="140" height="26" as="geometry" />
        </mxCell>
        <mxCell id="1fdf3b25b50cf41e-31" style="edgeStyle=orthogonalEdgeStyle;html=1;labelBackgroundColor=none;startFill=0;startSize=8;endFill=1;endSize=8;fontFamily=Verdana;fontSize=12;" parent="1" source="1fdf3b25b50cf41e-11" target="17472293e6e8944d-4" edge="1">
          <mxGeometry relative="1" as="geometry">
            <Array as="points">
              <mxPoint x="810" y="230" />
            </Array>
          </mxGeometry>
        </mxCell>
        <mxCell id="1fdf3b25b50cf41e-11" value="3" style="swimlane;html=1;fontStyle=0;childLayout=stackLayout;horizontal=1;startSize=26;fillColor=#e0e0e0;horizontalStack=0;resizeParent=1;resizeLast=0;collapsible=1;marginBottom=0;swimlaneFillColor=#ffffff;align=center;rounded=1;shadow=0;comic=0;labelBackgroundColor=none;strokeWidth=1;fontFamily=Verdana;fontSize=12" parent="1" vertex="1">
          <mxGeometry x="700" y="165" width="140" height="52" as="geometry" />
        </mxCell>
        <mxCell id="1fdf3b25b50cf41e-12" value="Analyze Data" style="text;html=1;strokeColor=none;fillColor=none;spacingLeft=4;spacingRight=4;whiteSpace=wrap;overflow=hidden;rotatable=0;points=[[0,0.5],[1,0.5]];portConstraint=eastwest;align=center;" parent="1fdf3b25b50cf41e-11" vertex="1">
          <mxGeometry y="26" width="140" height="26" as="geometry" />
        </mxCell>
        <mxCell id="1fdf3b25b50cf41e-46" style="edgeStyle=orthogonalEdgeStyle;html=1;labelBackgroundColor=none;startFill=0;startSize=8;endFill=1;endSize=8;fontFamily=Verdana;fontSize=12;" parent="1" source="1fdf3b25b50cf41e-15" target="1fdf3b25b50cf41e-6" edge="1">
          <mxGeometry relative="1" as="geometry">
            <Array as="points">
              <mxPoint x="650" y="400" />
            </Array>
          </mxGeometry>
        </mxCell>
        <mxCell id="1fdf3b25b50cf41e-15" value="4" style="swimlane;html=1;fontStyle=0;childLayout=stackLayout;horizontal=1;startSize=26;fillColor=#e0e0e0;horizontalStack=0;resizeParent=1;resizeLast=0;collapsible=1;marginBottom=0;swimlaneFillColor=#ffffff;align=center;rounded=1;shadow=0;comic=0;labelBackgroundColor=none;strokeWidth=1;fontFamily=Verdana;fontSize=12" parent="1" vertex="1">
          <mxGeometry x="585" y="308" width="140" height="52" as="geometry" />
        </mxCell>
        <mxCell id="1fdf3b25b50cf41e-16" value="AI Algorithms" style="text;html=1;strokeColor=none;fillColor=none;spacingLeft=4;spacingRight=4;whiteSpace=wrap;overflow=hidden;rotatable=0;points=[[0,0.5],[1,0.5]];portConstraint=eastwest;align=center;" parent="1fdf3b25b50cf41e-15" vertex="1">
          <mxGeometry y="26" width="140" height="26" as="geometry" />
        </mxCell>
        <mxCell id="1fdf3b25b50cf41e-36" style="edgeStyle=none;html=1;labelBackgroundColor=none;startFill=0;startSize=8;endFill=1;endSize=8;fontFamily=Verdana;fontSize=12;" parent="1" source="1fdf3b25b50cf41e-34" target="1fdf3b25b50cf41e-15" edge="1">
          <mxGeometry relative="1" as="geometry" />
        </mxCell>
        <mxCell id="1fdf3b25b50cf41e-37" style="edgeStyle=none;html=1;labelBackgroundColor=none;startFill=0;startSize=8;endFill=1;endSize=8;fontFamily=Verdana;fontSize=12;" parent="1" source="1fdf3b25b50cf41e-34" target="1fdf3b25b50cf41e-11" edge="1">
          <mxGeometry relative="1" as="geometry" />
        </mxCell>
        <mxCell id="1fdf3b25b50cf41e-34" value="" style="ellipse;whiteSpace=wrap;html=1;rounded=1;shadow=0;comic=0;labelBackgroundColor=none;strokeWidth=1;fontFamily=Verdana;fontSize=12;align=center;" parent="1" vertex="1">
          <mxGeometry x="640" y="176" width="30" height="30" as="geometry" />
        </mxCell>
        <mxCell id="GlyjRPv7AyUIxzF5meV9-3" value="Smart Camera" style="whiteSpace=wrap;html=1;rounded=0;shadow=0;comic=0;labelBackgroundColor=none;strokeWidth=1;fontFamily=Verdana;fontSize=12;align=center;" parent="1" vertex="1">
          <mxGeometry x="240" y="54" width="120" height="50" as="geometry" />
        </mxCell>
        <mxCell id="GlyjRPv7AyUIxzF5meV9-5" value="Face Recognition" style="html=1;rounded=0;shadow=0;comic=0;labelBackgroundColor=none;strokeWidth=2;fontFamily=Verdana;fontSize=12;align=center;shape=mxgraph.ios7ui.horLines;" parent="1" vertex="1">
          <mxGeometry x="1130" y="280" width="135" height="50" as="geometry" />
        </mxCell>
        <mxCell id="GlyjRPv7AyUIxzF5meV9-7" value="Person ID" style="html=1;rounded=0;shadow=0;comic=0;labelBackgroundColor=none;strokeWidth=2;fontFamily=Verdana;fontSize=12;align=center;shape=mxgraph.ios7ui.horLines;" parent="1" vertex="1">
          <mxGeometry x="1130" y="360" width="135" height="50" as="geometry" />
        </mxCell>
        <mxCell id="GlyjRPv7AyUIxzF5meV9-8" value="History" style="html=1;rounded=0;shadow=0;comic=0;labelBackgroundColor=none;strokeWidth=2;fontFamily=Verdana;fontSize=12;align=center;shape=mxgraph.ios7ui.horLines;" parent="1" vertex="1">
          <mxGeometry x="1130" y="440" width="135" height="50" as="geometry" />
        </mxCell>
        <mxCell id="GlyjRPv7AyUIxzF5meV9-10" style="edgeStyle=orthogonalEdgeStyle;rounded=0;orthogonalLoop=1;jettySize=auto;html=1;entryX=0.007;entryY=0.642;entryDx=0;entryDy=0;entryPerimeter=0;" parent="1" source="GlyjRPv7AyUIxzF5meV9-11" target="GlyjRPv7AyUIxzF5meV9-5" edge="1">
          <mxGeometry relative="1" as="geometry">
            <Array as="points">
              <mxPoint x="1072" y="395" />
              <mxPoint x="1072" y="312" />
            </Array>
          </mxGeometry>
        </mxCell>
        <mxCell id="GlyjRPv7AyUIxzF5meV9-12" value="" style="edgeStyle=orthogonalEdgeStyle;rounded=0;orthogonalLoop=1;jettySize=auto;html=1;entryX=0.007;entryY=0.642;entryDx=0;entryDy=0;entryPerimeter=0;" parent="1" source="1fdf3b25b50cf41e-6" target="GlyjRPv7AyUIxzF5meV9-11" edge="1">
          <mxGeometry relative="1" as="geometry">
            <mxPoint x="1045" y="395" as="sourcePoint" />
            <mxPoint x="1101" y="312" as="targetPoint" />
            <Array as="points" />
          </mxGeometry>
        </mxCell>
        <mxCell id="GlyjRPv7AyUIxzF5meV9-26" style="edgeStyle=orthogonalEdgeStyle;rounded=0;orthogonalLoop=1;jettySize=auto;html=1;" parent="1" source="GlyjRPv7AyUIxzF5meV9-11" target="1fdf3b25b50cf41e-6" edge="1">
          <mxGeometry relative="1" as="geometry" />
        </mxCell>
        <mxCell id="GlyjRPv7AyUIxzF5meV9-11" value="" style="ellipse;whiteSpace=wrap;html=1;rounded=1;shadow=0;comic=0;labelBackgroundColor=none;strokeWidth=1;fontFamily=Verdana;fontSize=12;align=center;" parent="1" vertex="1">
          <mxGeometry x="1060" y="380" width="30" height="30" as="geometry" />
        </mxCell>
        <mxCell id="GlyjRPv7AyUIxzF5meV9-13" style="edgeStyle=orthogonalEdgeStyle;rounded=0;orthogonalLoop=1;jettySize=auto;html=1;exitX=1;exitY=0.5;exitDx=0;exitDy=0;entryX=0;entryY=0.7;entryDx=0;entryDy=0;entryPerimeter=0;" parent="1" source="GlyjRPv7AyUIxzF5meV9-11" target="GlyjRPv7AyUIxzF5meV9-7" edge="1">
          <mxGeometry relative="1" as="geometry" />
        </mxCell>
        <mxCell id="GlyjRPv7AyUIxzF5meV9-14" style="edgeStyle=orthogonalEdgeStyle;rounded=0;orthogonalLoop=1;jettySize=auto;html=1;exitX=0.5;exitY=1;exitDx=0;exitDy=0;entryX=0;entryY=0.6;entryDx=0;entryDy=0;entryPerimeter=0;" parent="1" source="GlyjRPv7AyUIxzF5meV9-11" target="GlyjRPv7AyUIxzF5meV9-8" edge="1">
          <mxGeometry relative="1" as="geometry" />
        </mxCell>
        <mxCell id="GlyjRPv7AyUIxzF5meV9-25" style="edgeStyle=orthogonalEdgeStyle;rounded=0;orthogonalLoop=1;jettySize=auto;html=1;entryX=0.478;entryY=1.003;entryDx=0;entryDy=0;entryPerimeter=0;" parent="1" source="1fdf3b25b50cf41e-6" target="1fdf3b25b50cf41e-12" edge="1">
          <mxGeometry relative="1" as="geometry" />
        </mxCell>
        <mxCell id="GlyjRPv7AyUIxzF5meV9-31" style="edgeStyle=orthogonalEdgeStyle;rounded=0;orthogonalLoop=1;jettySize=auto;html=1;exitX=0;exitY=0.5;exitDx=0;exitDy=0;entryX=1;entryY=0.5;entryDx=0;entryDy=0;" parent="1" source="GlyjRPv7AyUIxzF5meV9-27" target="GlyjRPv7AyUIxzF5meV9-29" edge="1">
          <mxGeometry relative="1" as="geometry">
            <Array as="points">
              <mxPoint x="440" y="344" />
              <mxPoint x="440" y="266" />
            </Array>
          </mxGeometry>
        </mxCell>
        <mxCell id="GlyjRPv7AyUIxzF5meV9-36" style="edgeStyle=orthogonalEdgeStyle;rounded=0;orthogonalLoop=1;jettySize=auto;html=1;entryX=1;entryY=0.5;entryDx=0;entryDy=0;" parent="1" edge="1">
          <mxGeometry relative="1" as="geometry">
            <mxPoint x="480.2210792131855" y="343.6555172413793" as="sourcePoint" />
            <mxPoint x="360" y="343.6899999999999" as="targetPoint" />
            <Array as="points">
              <mxPoint x="410" y="343.69" />
              <mxPoint x="410" y="343.69" />
            </Array>
          </mxGeometry>
        </mxCell>
        <mxCell id="GlyjRPv7AyUIxzF5meV9-37" style="edgeStyle=orthogonalEdgeStyle;rounded=0;orthogonalLoop=1;jettySize=auto;html=1;entryX=1;entryY=0.5;entryDx=0;entryDy=0;" parent="1" source="GlyjRPv7AyUIxzF5meV9-27" target="GlyjRPv7AyUIxzF5meV9-35" edge="1">
          <mxGeometry relative="1" as="geometry">
            <Array as="points">
              <mxPoint x="440" y="344" />
              <mxPoint x="440" y="427" />
            </Array>
          </mxGeometry>
        </mxCell>
        <mxCell id="GlyjRPv7AyUIxzF5meV9-27" value="" style="ellipse;whiteSpace=wrap;html=1;aspect=fixed;" parent="1" vertex="1">
          <mxGeometry x="480" y="324" width="40" height="40" as="geometry" />
        </mxCell>
        <mxCell id="GlyjRPv7AyUIxzF5meV9-28" style="edgeStyle=orthogonalEdgeStyle;rounded=0;orthogonalLoop=1;jettySize=auto;html=1;entryX=1;entryY=0.5;entryDx=0;entryDy=0;" parent="1" source="1fdf3b25b50cf41e-16" target="GlyjRPv7AyUIxzF5meV9-27" edge="1">
          <mxGeometry relative="1" as="geometry">
            <Array as="points">
              <mxPoint x="570" y="344" />
              <mxPoint x="570" y="344" />
            </Array>
          </mxGeometry>
        </mxCell>
        <mxCell id="GlyjRPv7AyUIxzF5meV9-29" value="5" style="swimlane;html=1;fontStyle=0;childLayout=stackLayout;horizontal=1;startSize=26;fillColor=#e0e0e0;horizontalStack=0;resizeParent=1;resizeLast=0;collapsible=1;marginBottom=0;swimlaneFillColor=#ffffff;align=center;rounded=1;shadow=0;comic=0;labelBackgroundColor=none;strokeWidth=1;fontFamily=Verdana;fontSize=12" parent="1" vertex="1">
          <mxGeometry x="220" y="240" width="140" height="52" as="geometry" />
        </mxCell>
        <mxCell id="GlyjRPv7AyUIxzF5meV9-30" value="Face Recognition&amp;nbsp;" style="text;html=1;strokeColor=none;fillColor=none;spacingLeft=4;spacingRight=4;whiteSpace=wrap;overflow=hidden;rotatable=0;points=[[0,0.5],[1,0.5]];portConstraint=eastwest;align=center;" parent="GlyjRPv7AyUIxzF5meV9-29" vertex="1">
          <mxGeometry y="26" width="140" height="26" as="geometry" />
        </mxCell>
        <mxCell id="GlyjRPv7AyUIxzF5meV9-32" value="6" style="swimlane;html=1;fontStyle=0;childLayout=stackLayout;horizontal=1;startSize=26;fillColor=#e0e0e0;horizontalStack=0;resizeParent=1;resizeLast=0;collapsible=1;marginBottom=0;swimlaneFillColor=#ffffff;align=center;rounded=1;shadow=0;comic=0;labelBackgroundColor=none;strokeWidth=1;fontFamily=Verdana;fontSize=12" parent="1" vertex="1">
          <mxGeometry x="220" y="314" width="140" height="66" as="geometry" />
        </mxCell>
        <mxCell id="GlyjRPv7AyUIxzF5meV9-33" value="Abnormal Behavior Detection&amp;nbsp;" style="text;html=1;strokeColor=none;fillColor=none;spacingLeft=4;spacingRight=4;whiteSpace=wrap;overflow=hidden;rotatable=0;points=[[0,0.5],[1,0.5]];portConstraint=eastwest;align=center;" parent="GlyjRPv7AyUIxzF5meV9-32" vertex="1">
          <mxGeometry y="26" width="140" height="40" as="geometry" />
        </mxCell>
        <mxCell id="GlyjRPv7AyUIxzF5meV9-34" value="7" style="swimlane;html=1;fontStyle=0;childLayout=stackLayout;horizontal=1;startSize=26;fillColor=#e0e0e0;horizontalStack=0;resizeParent=1;resizeLast=0;collapsible=1;marginBottom=0;swimlaneFillColor=#ffffff;align=center;rounded=1;shadow=0;comic=0;labelBackgroundColor=none;strokeWidth=1;fontFamily=Verdana;fontSize=12" parent="1" vertex="1">
          <mxGeometry x="220" y="388" width="140" height="52" as="geometry" />
        </mxCell>
        <mxCell id="GlyjRPv7AyUIxzF5meV9-35" value="Face Recognition&amp;nbsp;" style="text;html=1;strokeColor=none;fillColor=none;spacingLeft=4;spacingRight=4;whiteSpace=wrap;overflow=hidden;rotatable=0;points=[[0,0.5],[1,0.5]];portConstraint=eastwest;align=center;" parent="GlyjRPv7AyUIxzF5meV9-34" vertex="1">
          <mxGeometry y="26" width="140" height="26" as="geometry" />
        </mxCell>
      </root>
    </mxGraphModel>
  </diagram>
</mxfile>
